<svg xmlns="http://www.w3.org/2000/svg" viewBox="0 0 32 32"><title>21-Clapperboard</title><g id="_21-Clapperboard" data-name="21-Clapperboard"><path d="M27,32H5a5.006,5.006,0,0,1-5-5V5A5.006,5.006,0,0,1,5,0H27a5.006,5.006,0,0,1,5,5V27A5.006,5.006,0,0,1,27,32ZM5,2A3,3,0,0,0,2,5V27a3,3,0,0,0,3,3H27a3,3,0,0,0,3-3V5a3,3,0,0,0-3-3Z"/><path d="M31,10H1A1,1,0,0,1,1,8H31a1,1,0,0,1,0,2Z"/><path d="M4,10a1,1,0,0,1-.707-1.707l8-8a1,1,0,0,1,1.414,1.414l-8,8A1,1,0,0,1,4,10Z"/><path d="M12,10a1,1,0,0,1-.707-1.707l8-8a1,1,0,0,1,1.414,1.414l-8,8A1,1,0,0,1,12,10Z"/><path d="M20,10a1,1,0,0,1-.707-1.707l8-8a1,1,0,0,1,1.414,1.414l-8,8A1,1,0,0,1,20,10Z"/><path d="M25,17H6a1,1,0,0,1,0-2H25a1,1,0,0,1,0,2Z"/><path d="M19,25a1,1,0,0,1-1-1V16a1,1,0,0,1,2,0v8A1,1,0,0,1,19,25Z"/></g></svg>